# xmcd CD database file
# Copyright (C) 1996 Ti Kan
#
# Track frame offsets:
# 	150
# 	14017
# 	27265
# 	41910
# 	61270
# 	79457
# 	96075
# 	111490
# 	121275
# 	131897
# 	150682
#
# Disc length: 2168 seconds
#
# Revision: 1
# Processed by: cddbd v1.4b41PL1 Copyright (c) Steve Scherf et al.
# Submitted via: DiscPlay 3.4.1
#
DISCID=9b08760b
DTITLE=The Picketts - Euphonium
DYEAR=1900
DGENRE=
TTITLE0=Good Good Wife
TTITLE1=Action Speaks Louder Than Words
TTITLE2=Just Passin' Through
TTITLE3=Baba O'Riley
TTITLE4=Night Fell
TTITLE5=House Made From Cards
TTITLE6=Should I Stay or Should I Go?
TTITLE7=Seven
TTITLE8=Overworked Overloaded Underpaid
TTITLE9=I Can't Close My Eyes
TTITLE10=Same Town Same Planet (Different World)
EXTD=
EXTT0=
EXTT1=
EXTT2=
EXTT3=
EXTT4=
EXTT5=
EXTT6=
EXTT7=
EXTT8=
EXTT9=
EXTT10=
PLAYORDER=
